{
	"patcher" : 	{
		"fileversion" : 1,
		"rect" : [ 520.0, 276.0, 640.0, 506.0 ],
		"bglocked" : 0,
		"defrect" : [ 520.0, 276.0, 640.0, 506.0 ],
		"openrect" : [ 0.0, 0.0, 0.0, 0.0 ],
		"openinpresentation" : 0,
		"default_fontsize" : 10.0,
		"default_fontface" : 0,
		"default_fontname" : "Arial",
		"gridonopen" : 0,
		"gridsize" : [ 15.0, 15.0 ],
		"gridsnaponopen" : 0,
		"toolbarvisible" : 1,
		"boxanimatetime" : 200,
		"imprint" : 0,
		"metadata" : [  ],
		"boxes" : [ 			{
				"box" : 				{
					"maxclass" : "comment",
					"text" : "transposition",
					"numinlets" : 1,
					"fontname" : "Arial",
					"numoutlets" : 0,
					"id" : "obj-27",
					"fontsize" : 10.0,
					"patching_rect" : [ 362.0, 299.0, 67.0, 18.0 ]
				}

			}
, 			{
				"box" : 				{
					"maxclass" : "comment",
					"text" : "ne laisse passer que les valeur de l'harmonique correspondant au numéro d'instance",
					"linecount" : 2,
					"numinlets" : 1,
					"fontname" : "Arial",
					"numoutlets" : 0,
					"id" : "obj-25",
					"fontsize" : 10.0,
					"patching_rect" : [ 261.0, 214.0, 226.0, 29.0 ]
				}

			}
, 			{
				"box" : 				{
					"maxclass" : "comment",
					"text" : "réorganisation [fréquence, amplitude, numéro d'harmonique]",
					"numinlets" : 1,
					"fontname" : "Arial",
					"numoutlets" : 0,
					"id" : "obj-23",
					"fontsize" : 10.0,
					"patching_rect" : [ 287.0, 67.0, 278.0, 18.0 ]
				}

			}
, 			{
				"box" : 				{
					"maxclass" : "comment",
					"text" : "liste [numéro d'harmonique, fréquence, amplitude]",
					"numinlets" : 1,
					"fontname" : "Arial",
					"numoutlets" : 0,
					"id" : "obj-22",
					"fontsize" : 10.0,
					"patching_rect" : [ 266.0, 28.0, 233.0, 18.0 ]
				}

			}
, 			{
				"box" : 				{
					"maxclass" : "comment",
					"text" : "Oscillateur simple",
					"numinlets" : 1,
					"fontname" : "Arial",
					"numoutlets" : 0,
					"id" : "obj-6",
					"fontsize" : 18.0,
					"patching_rect" : [ 12.0, 10.0, 153.0, 27.0 ]
				}

			}
, 			{
				"box" : 				{
					"maxclass" : "newobj",
					"text" : "in 2",
					"numinlets" : 1,
					"fontname" : "Arial",
					"numoutlets" : 1,
					"id" : "obj-2",
					"outlettype" : [ "" ],
					"fontsize" : 10.0,
					"patching_rect" : [ 333.0, 299.0, 27.0, 18.0 ],
					"saved_object_attributes" : 					{

					}

				}

			}
, 			{
				"box" : 				{
					"maxclass" : "newobj",
					"text" : "* 1.",
					"numinlets" : 2,
					"fontname" : "Arial",
					"numoutlets" : 1,
					"id" : "obj-1",
					"outlettype" : [ "float" ],
					"fontsize" : 10.0,
					"patching_rect" : [ 223.0, 316.0, 32.5, 18.0 ]
				}

			}
, 			{
				"box" : 				{
					"maxclass" : "newobj",
					"text" : "out~ 1",
					"numinlets" : 1,
					"fontname" : "Arial",
					"numoutlets" : 0,
					"id" : "obj-21",
					"fontsize" : 10.0,
					"patching_rect" : [ 223.0, 464.0, 39.0, 18.0 ],
					"saved_object_attributes" : 					{
						"attr_comment" : ""
					}

				}

			}
, 			{
				"box" : 				{
					"maxclass" : "newobj",
					"text" : "*~",
					"numinlets" : 2,
					"fontname" : "Arial",
					"numoutlets" : 1,
					"id" : "obj-20",
					"outlettype" : [ "signal" ],
					"fontsize" : 10.0,
					"patching_rect" : [ 223.0, 434.0, 32.5, 18.0 ]
				}

			}
, 			{
				"box" : 				{
					"maxclass" : "newobj",
					"text" : "cycle~",
					"numinlets" : 2,
					"fontname" : "Arial",
					"numoutlets" : 1,
					"id" : "obj-19",
					"outlettype" : [ "signal" ],
					"fontsize" : 10.0,
					"patching_rect" : [ 223.0, 402.0, 39.0, 18.0 ]
				}

			}
, 			{
				"box" : 				{
					"maxclass" : "message",
					"text" : "$1 2",
					"numinlets" : 2,
					"fontname" : "Arial",
					"numoutlets" : 1,
					"id" : "obj-17",
					"outlettype" : [ "" ],
					"fontsize" : 10.0,
					"patching_rect" : [ 275.0, 378.0, 32.5, 16.0 ]
				}

			}
, 			{
				"box" : 				{
					"maxclass" : "newobj",
					"text" : "line~",
					"numinlets" : 2,
					"fontname" : "Arial",
					"numoutlets" : 2,
					"id" : "obj-18",
					"outlettype" : [ "signal", "bang" ],
					"fontsize" : 10.0,
					"patching_rect" : [ 275.0, 401.0, 32.5, 18.0 ]
				}

			}
, 			{
				"box" : 				{
					"maxclass" : "message",
					"text" : "$1 2",
					"numinlets" : 2,
					"fontname" : "Arial",
					"numoutlets" : 1,
					"id" : "obj-16",
					"outlettype" : [ "" ],
					"fontsize" : 10.0,
					"patching_rect" : [ 223.0, 343.0, 32.5, 16.0 ]
				}

			}
, 			{
				"box" : 				{
					"maxclass" : "newobj",
					"text" : "line~",
					"numinlets" : 2,
					"fontname" : "Arial",
					"numoutlets" : 2,
					"id" : "obj-14",
					"outlettype" : [ "signal", "bang" ],
					"fontsize" : 10.0,
					"patching_rect" : [ 223.0, 362.0, 32.5, 18.0 ]
				}

			}
, 			{
				"box" : 				{
					"maxclass" : "newobj",
					"text" : "unpack f f",
					"numinlets" : 1,
					"fontname" : "Arial",
					"numoutlets" : 2,
					"id" : "obj-13",
					"outlettype" : [ "float", "float" ],
					"fontsize" : 10.0,
					"patching_rect" : [ 223.0, 269.0, 54.0, 18.0 ]
				}

			}
, 			{
				"box" : 				{
					"maxclass" : "newobj",
					"text" : "pack f f",
					"numinlets" : 2,
					"fontname" : "Arial",
					"numoutlets" : 1,
					"id" : "obj-12",
					"outlettype" : [ "" ],
					"fontsize" : 10.0,
					"patching_rect" : [ 238.0, 140.0, 43.0, 18.0 ]
				}

			}
, 			{
				"box" : 				{
					"maxclass" : "newobj",
					"text" : "gate",
					"numinlets" : 2,
					"fontname" : "Arial",
					"numoutlets" : 1,
					"id" : "obj-11",
					"outlettype" : [ "" ],
					"fontsize" : 10.0,
					"patching_rect" : [ 224.0, 222.0, 32.5, 18.0 ]
				}

			}
, 			{
				"box" : 				{
					"maxclass" : "newobj",
					"text" : "==",
					"numinlets" : 2,
					"fontname" : "Arial",
					"numoutlets" : 1,
					"id" : "obj-10",
					"outlettype" : [ "int" ],
					"fontsize" : 10.0,
					"patching_rect" : [ 312.0, 164.0, 32.5, 18.0 ]
				}

			}
, 			{
				"box" : 				{
					"maxclass" : "newobj",
					"text" : "loadbang",
					"numinlets" : 1,
					"fontname" : "Arial",
					"numoutlets" : 1,
					"id" : "obj-9",
					"outlettype" : [ "bang" ],
					"fontsize" : 10.0,
					"patching_rect" : [ 326.0, 106.0, 52.0, 18.0 ]
				}

			}
, 			{
				"box" : 				{
					"maxclass" : "newobj",
					"text" : "thispoly~",
					"numinlets" : 1,
					"fontname" : "Arial",
					"numoutlets" : 2,
					"id" : "obj-8",
					"outlettype" : [ "int", "int" ],
					"fontsize" : 10.0,
					"patching_rect" : [ 326.0, 135.0, 50.0, 18.0 ]
				}

			}
, 			{
				"box" : 				{
					"maxclass" : "message",
					"text" : "$2 $3 $1",
					"numinlets" : 2,
					"fontname" : "Arial",
					"numoutlets" : 1,
					"id" : "obj-7",
					"outlettype" : [ "" ],
					"fontsize" : 10.0,
					"patching_rect" : [ 238.0, 68.0, 49.0, 16.0 ]
				}

			}
, 			{
				"box" : 				{
					"maxclass" : "newobj",
					"text" : "unpack f f i",
					"numinlets" : 1,
					"fontname" : "Arial",
					"numoutlets" : 3,
					"id" : "obj-5",
					"outlettype" : [ "float", "float", "int" ],
					"fontsize" : 10.0,
					"patching_rect" : [ 238.0, 107.0, 59.0, 18.0 ]
				}

			}
, 			{
				"box" : 				{
					"maxclass" : "newobj",
					"text" : "in 1",
					"numinlets" : 1,
					"fontname" : "Arial",
					"numoutlets" : 1,
					"id" : "obj-3",
					"outlettype" : [ "" ],
					"fontsize" : 10.0,
					"patching_rect" : [ 238.0, 28.0, 27.0, 18.0 ],
					"saved_object_attributes" : 					{
						"attr_comment" : ""
					}

				}

			}
 ],
		"lines" : [ 			{
				"patchline" : 				{
					"source" : [ "obj-20", 0 ],
					"destination" : [ "obj-21", 0 ],
					"hidden" : 0,
					"midpoints" : [  ]
				}

			}
, 			{
				"patchline" : 				{
					"source" : [ "obj-18", 0 ],
					"destination" : [ "obj-20", 1 ],
					"hidden" : 0,
					"midpoints" : [  ]
				}

			}
, 			{
				"patchline" : 				{
					"source" : [ "obj-19", 0 ],
					"destination" : [ "obj-20", 0 ],
					"hidden" : 0,
					"midpoints" : [  ]
				}

			}
, 			{
				"patchline" : 				{
					"source" : [ "obj-14", 0 ],
					"destination" : [ "obj-19", 0 ],
					"hidden" : 0,
					"midpoints" : [  ]
				}

			}
, 			{
				"patchline" : 				{
					"source" : [ "obj-13", 1 ],
					"destination" : [ "obj-17", 0 ],
					"hidden" : 0,
					"midpoints" : [  ]
				}

			}
, 			{
				"patchline" : 				{
					"source" : [ "obj-17", 0 ],
					"destination" : [ "obj-18", 0 ],
					"hidden" : 0,
					"midpoints" : [  ]
				}

			}
, 			{
				"patchline" : 				{
					"source" : [ "obj-16", 0 ],
					"destination" : [ "obj-14", 0 ],
					"hidden" : 0,
					"midpoints" : [  ]
				}

			}
, 			{
				"patchline" : 				{
					"source" : [ "obj-11", 0 ],
					"destination" : [ "obj-13", 0 ],
					"hidden" : 0,
					"midpoints" : [ 232.0, 240.0 ]
				}

			}
, 			{
				"patchline" : 				{
					"source" : [ "obj-12", 0 ],
					"destination" : [ "obj-11", 1 ],
					"hidden" : 0,
					"midpoints" : [  ]
				}

			}
, 			{
				"patchline" : 				{
					"source" : [ "obj-5", 1 ],
					"destination" : [ "obj-12", 1 ],
					"hidden" : 0,
					"midpoints" : [  ]
				}

			}
, 			{
				"patchline" : 				{
					"source" : [ "obj-5", 0 ],
					"destination" : [ "obj-12", 0 ],
					"hidden" : 0,
					"midpoints" : [  ]
				}

			}
, 			{
				"patchline" : 				{
					"source" : [ "obj-10", 0 ],
					"destination" : [ "obj-11", 0 ],
					"hidden" : 0,
					"midpoints" : [  ]
				}

			}
, 			{
				"patchline" : 				{
					"source" : [ "obj-5", 2 ],
					"destination" : [ "obj-10", 0 ],
					"hidden" : 0,
					"midpoints" : [  ]
				}

			}
, 			{
				"patchline" : 				{
					"source" : [ "obj-8", 0 ],
					"destination" : [ "obj-10", 1 ],
					"hidden" : 0,
					"midpoints" : [  ]
				}

			}
, 			{
				"patchline" : 				{
					"source" : [ "obj-9", 0 ],
					"destination" : [ "obj-8", 0 ],
					"hidden" : 0,
					"midpoints" : [  ]
				}

			}
, 			{
				"patchline" : 				{
					"source" : [ "obj-7", 0 ],
					"destination" : [ "obj-5", 0 ],
					"hidden" : 0,
					"midpoints" : [  ]
				}

			}
, 			{
				"patchline" : 				{
					"source" : [ "obj-3", 0 ],
					"destination" : [ "obj-7", 0 ],
					"hidden" : 0,
					"midpoints" : [  ]
				}

			}
, 			{
				"patchline" : 				{
					"source" : [ "obj-13", 0 ],
					"destination" : [ "obj-1", 0 ],
					"hidden" : 0,
					"midpoints" : [  ]
				}

			}
, 			{
				"patchline" : 				{
					"source" : [ "obj-1", 0 ],
					"destination" : [ "obj-16", 0 ],
					"hidden" : 0,
					"midpoints" : [  ]
				}

			}
, 			{
				"patchline" : 				{
					"source" : [ "obj-2", 0 ],
					"destination" : [ "obj-1", 1 ],
					"hidden" : 0,
					"midpoints" : [  ]
				}

			}
 ]
	}

}
